<svg viewBox="-90 0 512 512" xmlns="http://www.w3.org/2000/svg">
  <path fill="currentColor" d="M166.24 430.14l-89.77-94.9 29.06-27.48 60.63 64.1 60.27-64.06 29.14 27.4zM332 392V120C332 53.83 278.17 0 212 0h-92C53.83 0 0 53.83 0 120v272c0 66.17 53.83 120 120 120h92c66.17 0 120-53.83 120-120zM212 40c44.11 0 80 35.89 80 80v272c0 44.11-35.89 80-80 80h-92c-44.11 0-80-35.89-80-80V120c0-44.11 35.89-80 80-80zm-46 41a20 20 0 100 40 20 20 0 000-40zm0 80a20 20 0 100 40 20 20 0 000-40zm0 80a20 20 0 100 40 20 20 0 000-40zm0 0"/>
</svg>